<svg width="21" height="19" viewBox="0 0 21 19" fill="none" xmlns="http://www.w3.org/2000/svg">
<path d="M10.479 1.52898C12.828 -0.58002 16.458 -0.51002 18.721 1.75698C20.983 4.02498 21.061 7.63698 18.957 9.99298L10.477 18.485L1.99903 9.99298C-0.104967 7.63698 -0.0259664 4.01898 2.23503 1.75698C4.50003 -0.50702 8.12303 -0.58302 10.479 1.52898ZM17.305 3.16998C15.805 1.66798 13.385 1.60698 11.815 3.01698L10.48 4.21498L9.14403 3.01798C7.56903 1.60598 5.15403 1.66798 3.65003 3.17198C2.16003 4.66198 2.08503 7.04698 3.45803 8.62298L10.478 15.654L17.498 8.62398C18.872 7.04698 18.797 4.66498 17.305 3.16998Z" fill="black"/>
</svg>
