<svg width="21" height="21" viewBox="0 0 21 21" fill="none" xmlns="http://www.w3.org/2000/svg">
<path d="M16.639 14.617L20.8289 18.899L19.4447 20.314L15.2558 16.031C13.6972 17.3082 11.7585 18.0029 9.76089 18C4.90089 18 0.956543 13.968 0.956543 9C0.956543 4.032 4.90089 0 9.76089 0C14.6209 0 18.5652 4.032 18.5652 9C18.5681 11.042 17.8885 13.0237 16.639 14.617ZM14.6767 13.875C15.9182 12.5699 16.6115 10.8204 16.6087 9C16.6087 5.132 13.5438 2 9.76089 2C5.97698 2 2.91306 5.132 2.91306 9C2.91306 12.867 5.97698 16 9.76089 16C11.5417 16.0029 13.2532 15.2941 14.5299 14.025L14.6767 13.875Z" fill="black"/>
</svg>
